<mxfile host="app.diagrams.net" modified="2024-03-29T16:08:06.450Z" agent="Mozilla/5.0 (Windows NT 10.0; Win64; x64) AppleWebKit/537.36 (KHTML, like Gecko) Chrome/121.0.0.0 Safari/537.36 OPR/107.0.0.0" etag="9pICA21NE4ZCGYUdnLlU" version="24.2.1" type="device">
  <diagram name="Page-1" id="lYOSFNnMT5BTYMQiM_vU">
    <mxGraphModel dx="1393" dy="758" grid="1" gridSize="10" guides="1" tooltips="1" connect="1" arrows="1" fold="1" page="1" pageScale="1" pageWidth="827" pageHeight="1169" math="0" shadow="0">
      <root>
        <mxCell id="0" />
        <mxCell id="1" parent="0" />
        <mxCell id="JFxvwIuQ5wIi_rinAN0z-2" value="B8B8B8" style="verticalLabelPosition=bottom;verticalAlign=top;html=1;shadow=0;dashed=0;strokeWidth=1;shape=rect;strokeColor=#666666;fontColor=#333333;fillColor=#BBFAFC;" vertex="1" parent="1">
          <mxGeometry x="155" y="110" width="380" height="560" as="geometry" />
        </mxCell>
        <mxCell id="JFxvwIuQ5wIi_rinAN0z-3" value="" style="verticalLabelPosition=bottom;verticalAlign=top;html=1;shadow=0;dashed=0;strokeWidth=1;shape=mxgraph.android.phone2;strokeColor=#c0c0c0;fillColor=#000000;" vertex="1" parent="1">
          <mxGeometry x="150" y="20" width="400" height="740" as="geometry" />
        </mxCell>
        <mxCell id="JFxvwIuQ5wIi_rinAN0z-4" value="" style="strokeWidth=1;html=1;shadow=0;dashed=0;shape=mxgraph.android.statusBar;align=center;fillColor=#000000;strokeColor=#ffffff;fontColor=#ffffff;fontSize=10;" vertex="1" parent="1">
          <mxGeometry x="160" y="80" width="380" height="30" as="geometry" />
        </mxCell>
        <mxCell id="JFxvwIuQ5wIi_rinAN0z-5" value="" style="verticalLabelPosition=bottom;verticalAlign=top;html=1;shadow=0;dashed=0;strokeWidth=2;shape=mxgraph.android.navigation_bar_1;fillColor=#1A1A1A;strokeColor=#999999;" vertex="1" parent="1">
          <mxGeometry x="165" y="670" width="370" height="30" as="geometry" />
        </mxCell>
        <mxCell id="JFxvwIuQ5wIi_rinAN0z-6" value="" style="html=1;verticalLabelPosition=bottom;align=center;labelBackgroundColor=#ffffff;verticalAlign=top;strokeWidth=2;shadow=0;dashed=0;shape=mxgraph.ios7.icons.home;strokeColor=#2EAFF0;" vertex="1" parent="1">
          <mxGeometry x="180" y="120" width="24" height="25.5" as="geometry" />
        </mxCell>
        <mxCell id="JFxvwIuQ5wIi_rinAN0z-7" value="" style="html=1;verticalLabelPosition=bottom;align=center;labelBackgroundColor=#ffffff;verticalAlign=top;strokeWidth=2;shadow=0;dashed=0;shape=mxgraph.ios7.icons.user;strokeColor=#2EAFF0;" vertex="1" parent="1">
          <mxGeometry x="500" y="118" width="30" height="30" as="geometry" />
        </mxCell>
        <mxCell id="JFxvwIuQ5wIi_rinAN0z-8" value="" style="html=1;verticalLabelPosition=bottom;labelBackgroundColor=#ffffff;verticalAlign=top;shadow=0;dashed=0;strokeWidth=2;shape=mxgraph.ios7.misc.pause;strokeColor=#0080f0;" vertex="1" parent="1">
          <mxGeometry x="339" y="620" width="32" height="30" as="geometry" />
        </mxCell>
        <mxCell id="JFxvwIuQ5wIi_rinAN0z-9" value="" style="html=1;verticalLabelPosition=bottom;align=center;labelBackgroundColor=#ffffff;verticalAlign=top;strokeWidth=2;strokeColor=#0080F0;shadow=0;dashed=0;shape=mxgraph.ios7.icons.reload;" vertex="1" parent="1">
          <mxGeometry x="180" y="620" width="24" height="27" as="geometry" />
        </mxCell>
        <mxCell id="JFxvwIuQ5wIi_rinAN0z-10" value="" style="html=1;verticalLabelPosition=bottom;align=center;labelBackgroundColor=#ffffff;verticalAlign=top;strokeWidth=2;strokeColor=#0080F0;shadow=0;dashed=0;shape=mxgraph.ios7.icons.settings;" vertex="1" parent="1">
          <mxGeometry x="479.79999999999995" y="617" width="30" height="30" as="geometry" />
        </mxCell>
        <mxCell id="JFxvwIuQ5wIi_rinAN0z-18" value="S&#39;entrainer" style="text;html=1;strokeColor=none;fillColor=none;align=center;verticalAlign=middle;whiteSpace=wrap;rounded=0;" vertex="1" parent="1">
          <mxGeometry x="210" y="121" width="280" height="20" as="geometry" />
        </mxCell>
        <mxCell id="JFxvwIuQ5wIi_rinAN0z-21" value="" style="ellipse;whiteSpace=wrap;html=1;aspect=fixed;fillColor=#B8B8B8;" vertex="1" parent="1">
          <mxGeometry x="240" y="220" width="80" height="80" as="geometry" />
        </mxCell>
        <mxCell id="JFxvwIuQ5wIi_rinAN0z-22" value="" style="ellipse;whiteSpace=wrap;html=1;aspect=fixed;fillColor=#fff2cc;strokeColor=#d6b656;" vertex="1" parent="1">
          <mxGeometry x="399.8" y="220" width="80" height="80" as="geometry" />
        </mxCell>
        <mxCell id="JFxvwIuQ5wIi_rinAN0z-23" value="" style="ellipse;whiteSpace=wrap;html=1;aspect=fixed;fillColor=#B8B8B8;" vertex="1" parent="1">
          <mxGeometry x="399.8" y="350" width="80" height="80" as="geometry" />
        </mxCell>
        <mxCell id="JFxvwIuQ5wIi_rinAN0z-24" value="" style="ellipse;whiteSpace=wrap;html=1;aspect=fixed;fillColor=#B8B8B8;" vertex="1" parent="1">
          <mxGeometry x="240" y="350" width="80" height="80" as="geometry" />
        </mxCell>
        <mxCell id="JFxvwIuQ5wIi_rinAN0z-25" value="Plot 1" style="text;html=1;align=center;verticalAlign=middle;whiteSpace=wrap;rounded=0;" vertex="1" parent="1">
          <mxGeometry x="250" y="230" width="60" height="30" as="geometry" />
        </mxCell>
        <mxCell id="JFxvwIuQ5wIi_rinAN0z-26" value="Plot 2" style="text;html=1;align=center;verticalAlign=middle;whiteSpace=wrap;rounded=0;" vertex="1" parent="1">
          <mxGeometry x="409.8" y="230" width="60" height="30" as="geometry" />
        </mxCell>
        <mxCell id="JFxvwIuQ5wIi_rinAN0z-27" value="Plot 3" style="text;html=1;align=center;verticalAlign=middle;whiteSpace=wrap;rounded=0;" vertex="1" parent="1">
          <mxGeometry x="250" y="360" width="60" height="30" as="geometry" />
        </mxCell>
        <mxCell id="JFxvwIuQ5wIi_rinAN0z-29" value="Plot 4" style="text;html=1;align=center;verticalAlign=middle;whiteSpace=wrap;rounded=0;" vertex="1" parent="1">
          <mxGeometry x="409.8" y="360" width="60" height="30" as="geometry" />
        </mxCell>
      </root>
    </mxGraphModel>
  </diagram>
</mxfile>
